<?xml version="1.0" encoding="UTF-8"?>
<svg width="752pt" height="752pt" version="1.1" viewBox="0 0 752 752" xmlns="http://www.w3.org/2000/svg">
 <g>
  <rect width="752" height="752" fill="#fff"/>
  <path d="m450 260.07c4.0859 0 7.3984 3.3125 7.3984 7.3984 0 3.7461-2.7852 6.8438-6.3945 7.332l-1.0039 0.066406h-16.047l38.961 60.613c10.863-5.6328 23.199-8.8125 36.281-8.8125 43.594 0 78.93 35.336 78.93 78.93 0 43.59-35.336 78.93-78.93 78.93-43.59 0-78.93-35.34-78.93-78.93 0-25.211 11.816-47.656 30.215-62.109l-22.156-34.465-91.355 101.52-0.44141 0.45312-0.66797 0.55469c-0.45703 0.34766-0.94922 0.62891-1.4609 0.85156l-0.99219 0.34375-1.1211 0.20703-0.81641 0.039062-20.074-0.003906c-3.7305 40.125-37.492 71.535-78.586 71.535-43.594 0-78.934-35.34-78.934-78.93 0-43.594 35.34-78.93 78.934-78.93 28.25 0 53.035 14.84 66.98 37.152l9.6094-4.793-22.859-74.293h-4.4023c-4.0859 0-7.3984-3.3125-7.3984-7.3984 0-3.7461 2.7852-6.8438 6.3945-7.332l1.0039-0.070312h29.602c4.0859 0 7.3984 3.3164 7.3984 7.4023 0 3.7461-2.7852 6.8398-6.3945 7.332l-1.0039 0.066406h-9.7227l15.68 50.98 94.152-52.312-7.6719-11.934-0.054687-0.082031-0.19531-0.33203-0.054687-0.097656 0.25391 0.42969-0.33594-0.59375-0.17187-0.36328c-0.089844-0.20703-0.17188-0.41406-0.24219-0.62891-0.039062-0.11328-0.070312-0.21875-0.10156-0.32813-0.17578-0.63281-0.27344-1.3086-0.27344-2.0039 0-1.0469 0.21484-2.0391 0.60938-2.9414 0.058594-0.14062 0.125-0.28125 0.19922-0.42188 0.085937-0.17188 0.17969-0.33594 0.27344-0.49609l0.23828-0.36328c0.10547-0.14844 0.21094-0.28516 0.32031-0.42188 0.10156-0.12891 0.20703-0.25391 0.32031-0.37891 0.125-0.12891 0.25-0.25391 0.375-0.375 0.11719-0.10938 0.23828-0.21484 0.36328-0.31641 0.16797-0.14062 0.33984-0.26562 0.51562-0.38672 0.058594-0.042969 0.12109-0.082032 0.18359-0.125l0.082031-0.050782c0.53516-0.33594 1.1133-0.60156 1.7305-0.79297 0.0625-0.019532 0.125-0.039063 0.18359-0.054688 0.32422-0.089844 0.66016-0.16016 1-0.20703l1.0039-0.066406zm-207.19 86.328c-32.695 0-59.199 26.504-59.199 59.199 0 32.691 26.504 59.195 59.199 59.195 30.188 0 55.098-22.598 58.738-51.801l-58.738 0.003906c-7.457 0-10.059-9.5898-4.207-13.5l0.89453-0.51953 52.539-26.27c-10.621-15.863-28.703-26.309-49.227-26.309zm266.39 0c-9.1484 0-17.809 2.0742-25.543 5.7812l31.77 49.414c2.207 3.4375 1.2148 8.0156-2.2227 10.227-3.125 2.0078-7.1953 1.3711-9.5703-1.3477l-0.65625-0.875-31.758-49.41c-12.969 10.859-21.215 27.172-21.215 45.41 0 32.691 26.504 59.195 59.195 59.195 32.695 0 59.199-26.504 59.199-59.195 0-32.695-26.504-59.199-59.199-59.199zm-210.54 39.539-24.527 12.258 27.414 0.003906c-0.52734-4.2422-1.5078-8.3477-2.8867-12.262zm25.148-12.578-7.3906 3.6953c2.582 6.6562 4.2891 13.746 4.9766 21.133l10.059 0.007813zm22.363-11.379c-0.16797 0.13672-0.34375 0.26953-0.52344 0.39453l-0.87109 0.50781-7.5625 3.7773 7.4805 24.285 6.1562-6.8477zm82.535-65.457-96.562 53.645 0.66016 2.1484 5.3555-2.6719c2.4727-1.2344 5.3047-0.95703 7.4453 0.48437 0.67578-0.82031 1.6211-1.4141 2.7344-1.6484 2.3672-0.50391 4.6992 0.78516 5.5859 2.9492l0.26172 0.85156 4.8242 22.758 70.18-77.973z"/>
 </g>
</svg>
